# xmcd
#
# Track frame offsets: 
#        150
#        14334
#        31415
#        47908
#        62375
#        75264
#        88824
#        103602
#        124348
#        139088
#
# Disc length: 2098 seconds
#
# Revision: 0
# Processed by: cddbd v1.5.2PL0 Copyright (c) Steve Scherf et al.
# Submitted via: ExactAudioCopyFreeDBPlugin 1.0
#
DISCID=7b08300a
DTITLE=Suzy Bogguss - Aces (Redux)
DYEAR=2016
DGENRE=Country
TTITLE0=Outbound Plane (Redux)
TTITLE1=Aces (Redux)
TTITLE2=Someday Soon (Redux)
TTITLE3=Let Goodbye Hurt (Redux)
TTITLE4=Save Yourself (Redux)
TTITLE5=Yellow River Road (Redux)
TTITLE6=Part Of Me (Redux)
TTITLE7=Letting Go (Redux)
TTITLE8=Music On The Wind (Redux)
TTITLE9=Still Hold On (Redux)
EXTD=
EXTT0=
EXTT1=
EXTT2=
EXTT3=
EXTT4=
EXTT5=
EXTT6=
EXTT7=
EXTT8=
EXTT9=
PLAYORDER=
